<?xml version="1.0" encoding="utf-8"?>
<!-- Generator: Adobe Illustrator 21.0.2, SVG Export Plug-In . SVG Version: 6.00 Build 0)  -->
<svg version="1.1" id="bai3" xmlns="http://www.w3.org/2000/svg" xmlns:xlink="http://www.w3.org/1999/xlink" x="0px" y="0px"
	 viewBox="0 0 51.8 24" style="enable-background:new 0 0 51.8 24;" xml:space="preserve">
<style type="text/css">
	.st0{fill:none;}
</style>
<g>
	
		<rect x="14.2" y="-14.1" transform="matrix(1.372202e-02 -0.9999 0.9999 1.372202e-02 13.8752 37.7149)" class="st0" width="23.6" height="51.9"/>
	<path d="M3.3,4.6C3.2,3.7,3.1,2.9,3,2.2C2.9,1.6,2.8,1.1,2.8,0.7c0-0.4,0.1-0.7,0.4-1c0.3-0.2,0.7-0.4,1.3-0.4
		c0,0.2,0.1,0.6,0.1,1.2c0,0.6,0.1,1.2,0.2,2C4.9,3.1,4.9,3.9,5,4.7c0.1,0.8,0.1,1.5,0.2,2.2c0.1,0.7,0.1,1.2,0.2,1.6
		c0.1,0.5,0.2,0.7,0.3,0.6c0.3,0,0.7-0.1,1-0.2c0.3-0.1,0.7-0.2,1.1-0.2C8.4,8.8,9,8.8,9.6,9c0.6,0.1,1.3,0.3,1.9,0.5
		c0.6,0.2,1.3,0.5,1.9,0.9c0.6,0.4,1.1,0.8,1.6,1.3c0.4,0.5,0.8,1,1.1,1.6c0.3,0.6,0.4,1.3,0.4,2c0,0.9-0.2,1.7-0.7,2.3
		c-0.4,0.6-1,1-1.7,1.3c-0.7,0.3-1.4,0.5-2.2,0.5c-0.8,0.1-1.6,0.1-2.2,0.1c-1,0-1.8-0.2-2.4-0.4c-0.6-0.3-1.1-0.6-1.5-1.1
		c-0.4-0.5-0.7-1-0.9-1.6c-0.2-0.6-0.3-1.3-0.4-2c-0.1-0.7-0.1-1.5-0.2-2.2c0-0.8-0.1-1.5-0.1-2.3c0-0.1-0.1-0.5-0.1-1
		C3.9,8.4,3.8,7.8,3.7,7.2C3.6,6.6,3.5,6.1,3.4,5.6C3.4,5,3.3,4.7,3.3,4.6z M6,12.7c-0.2,0.9-0.2,1.7,0.1,2.3
		c0.3,0.7,0.7,1.2,1.3,1.6c0.6,0.4,1.2,0.7,1.9,0.9c0.7,0.2,1.5,0.2,2.2,0.1c0.7-0.1,1.4-0.3,2-0.7c0.6-0.4,1.1-0.9,1.3-1.6
		c0-0.6-0.1-1.1-0.3-1.5c-0.2-0.5-0.5-0.9-0.9-1.2c-0.4-0.4-0.8-0.7-1.3-0.9c-0.5-0.3-1-0.5-1.5-0.7c-0.5-0.2-1-0.3-1.5-0.4
		c-0.5-0.1-0.9-0.2-1.3-0.2c-0.6,0-1.1,0.2-1.5,0.6C6.1,11.5,6,12,6,12.7z"/>
	<path d="M17.5,14.4c0-0.3,0.1-0.7,0.3-1.2c0.2-0.5,0.5-0.9,0.8-1.3c0.4-0.4,0.8-0.8,1.4-1.1c0.6-0.3,1.2-0.6,2-0.7s1.6-0.1,2.6,0
		c1,0.1,2,0.5,3.2,1c0,0,0-0.1,0-0.3l0-0.3c0-0.5-0.1-1.1-0.4-1.6c-0.3-0.6-0.6-1.1-1.1-1.5c-0.4-0.4-0.9-0.8-1.4-1.1
		c-0.5-0.3-1-0.4-1.5-0.4c-0.2,0-0.4,0-0.5,0.1c-0.1,0.1-0.3,0.1-0.4,0.2c-0.1,0.1-0.3,0.2-0.4,0.2c-0.1,0.1-0.3,0.1-0.4,0.1
		c0,0-0.1,0-0.1,0c0,0,0,0-0.1-0.1c0,0-0.1-0.1-0.2-0.2C21.3,6,21.3,6,21.3,6c0-0.4,0.1-0.7,0.2-1c0.1-0.3,0.3-0.5,0.5-0.6
		c0.2-0.2,0.5-0.3,0.8-0.4c0.3-0.1,0.6-0.1,0.9-0.1c0.8,0.1,1.5,0.4,2.2,0.8c0.7,0.4,1.3,1,1.9,1.6c0.6,0.6,1.1,1.4,1.5,2.2
		c0.4,0.8,0.8,1.7,1.1,2.6c0.3,0.9,0.5,1.8,0.6,2.7c0.1,0.9,0.1,1.8,0,2.7c0,0-0.1,0-0.2,0c-0.1,0-0.2,0-0.3,0c-0.1,0-0.2,0-0.3,0
		l-0.1,0c-0.4-1-0.8-1.8-1.3-2.4s-1-1.1-1.5-1.4s-0.9-0.6-1.4-0.7c-0.4-0.1-0.8-0.2-1-0.3c-0.3,0-0.6,0-1,0c-0.4,0-0.8,0.1-1.2,0.2
		c-0.4,0.1-0.9,0.2-1.3,0.4c-0.4,0.2-0.8,0.4-1.2,0.6s-0.6,0.5-0.8,0.9c-0.2,0.3-0.3,0.7-0.3,1.2c0,0.5,0.2,0.9,0.5,1.3
		c0.4,0.3,0.8,0.6,1.3,0.9c0.5,0.2,1,0.4,1.6,0.5c0.5,0.1,1,0.1,1.3,0.1c0.5,0,1.1,0,1.6-0.1s1-0.1,1.5-0.2c0.5-0.1,1-0.1,1.5-0.2
		c0.5-0.1,1-0.1,1.5-0.1c0,0,0.1,0,0.2,0c0.1,0,0.2,0,0.3,0c0.1,0,0.2,0,0.3,0s0.1,0,0.2,0c0.2,0.1,0.2,0.2,0.3,0.3
		c0,0.1,0,0.2,0,0.4c0,0.1-0.1,0.3-0.4,0.4c-0.2,0.1-0.6,0.3-0.9,0.4c-0.4,0.1-0.8,0.3-1.3,0.4c-0.5,0.1-0.9,0.3-1.4,0.4
		c-0.4,0.1-0.8,0.2-1.2,0.2c-0.4,0.1-0.6,0.1-0.8,0.1c-0.8,0-1.7-0.1-2.6-0.3c-0.9-0.2-1.7-0.4-2.5-0.8c-0.7-0.4-1.4-0.9-1.8-1.6
		C17.7,16.3,17.5,15.4,17.5,14.4z"/>
	<path d="M32.4,1.4c0-0.2,0.1-0.4,0.2-0.5c0.1-0.1,0.3-0.1,0.5-0.1c0.1,0,0.3,0.1,0.5,0.3s0.4,0.4,0.5,0.7c0.1,0.2,0.2,0.5,0.2,0.7
		c0,0.2-0.1,0.4-0.4,0.4l-0.1,0c-0.3,0-0.5,0-0.7-0.1c-0.2,0-0.3-0.1-0.4-0.2s-0.2-0.2-0.2-0.4C32.4,1.9,32.4,1.7,32.4,1.4z
		 M33.8,9.1c0-0.1,0-0.2,0-0.5c0-0.2,0-0.5,0-0.7c0-0.2,0-0.5,0-0.7c0-0.2,0-0.4,0-0.5c-0.1-0.6,0.1-1,0.5-0.9
		c0.2,0,0.4,0.1,0.5,0.2c0.1,0.1,0.3,0.3,0.4,0.5c-0.1,1.1,0,2.1,0.1,3.1c0.1,1,0.3,2,0.4,3s0.3,2,0.5,3c0.1,1,0.2,2,0.2,3.1
		c0,0.3-0.1,0.6-0.3,0.9c-0.2,0.3-0.4,0.4-0.7,0.4c-0.2,0-0.5-0.2-0.6-0.7s-0.3-1.1-0.5-1.8c-0.1-0.7-0.2-1.5-0.3-2.4
		s-0.1-1.7-0.2-2.5c0-0.8-0.1-1.5-0.1-2.1C33.8,9.8,33.7,9.3,33.8,9.1z"/>
	<path d="M37.6,16C37.5,15.9,37.5,15.9,37.6,16l0-0.3c0-0.3,0.1-0.6,0.3-0.9c0.2-0.2,0.4-0.3,0.8-0.3c0.1,0,0.3,0.2,0.6,0.6
		c0.3,0.4,0.6,0.8,1.1,1.2c0.5,0.5,1,0.9,1.7,1.3c0.7,0.4,1.4,0.6,2.3,0.6c0.3,0,0.7,0,1-0.1c0.3,0,0.7-0.1,0.9-0.3s0.5-0.3,0.7-0.6
		s0.3-0.6,0.3-1c0-0.9-0.2-1.6-0.6-2.1s-0.9-1-1.5-1.4c-0.6-0.4-1.3-0.7-2-0.8c-0.7-0.2-1.4-0.4-2-0.6c-0.6-0.2-1.1-0.3-1.5-0.5
		S39,10.5,39,10.2c0,0,0-0.1,0-0.1c0,0,0,0,0-0.1c0-0.1,0.1-0.2,0.3-0.3c0.1-0.1,0.2-0.2,0.3-0.3c0.2,0,0.5-0.1,0.9-0.2
		c0.4-0.1,0.8-0.2,1.3-0.3c0.5-0.1,0.9-0.2,1.4-0.4c0.5-0.2,0.9-0.3,1.3-0.6c0.4-0.2,0.7-0.5,1-0.8c0.3-0.3,0.4-0.6,0.4-1
		c0-0.3-0.1-0.6-0.3-0.8c-0.2-0.2-0.5-0.4-0.8-0.5C44.3,5,44,4.9,43.7,4.9c-0.3,0-0.6-0.1-0.8-0.1s-0.5,0-0.8,0
		c-0.4,0-0.7,0-1.1,0.1c-0.4,0-0.7,0.1-0.9,0.2s-0.4,0.2-0.4,0.3l0,0.7c-0.4,0-0.8-0.1-1-0.4c-0.2-0.2-0.4-0.6-0.4-1.1
		c0-0.2,0.1-0.4,0.2-0.6c0.1-0.2,0.2-0.3,0.4-0.4c0.2-0.1,0.4-0.2,0.5-0.3c0.2-0.1,0.4-0.1,0.5-0.1l4.2,0.1c0.4,0,0.8,0.1,1.2,0.3
		c0.4,0.2,0.7,0.5,1,0.8c0.3,0.3,0.5,0.7,0.6,1.2C47,6.1,47.1,6.6,47.1,7c0,0.4-0.1,0.8-0.4,1.1c-0.3,0.3-0.6,0.5-0.9,0.8
		c-0.3,0.2-0.6,0.4-0.9,0.7c-0.3,0.2-0.4,0.5-0.4,0.8c0,0,0,0,0,0.1l0,0.1c0.6,0.2,1.1,0.6,1.7,0.9c0.5,0.4,1,0.9,1.4,1.4
		c0.4,0.5,0.7,1.1,1,1.7c0.2,0.6,0.3,1.2,0.3,1.9c0,0.6-0.1,1.2-0.4,1.6c-0.3,0.5-0.6,0.8-1,1.1c-0.4,0.3-0.9,0.5-1.4,0.6
		s-1,0.2-1.5,0.2c-0.5,0-0.9-0.1-1.4-0.2c-0.4-0.1-0.9-0.2-1.4-0.5c-0.5-0.2-1.1-0.6-1.8-1.2C39.3,17.7,38.5,16.9,37.6,16z"/>
</g>
</svg>
